<svg xmlns="http://www.w3.org/2000/svg" viewBox="0 0 77.92 85.98"><style>.cls-1{fill:#fff}.cls-2{fill:#1e407c}.cls-3{fill:#bbc6d8}</style><title>PSU_RGB_1C</title><g><g><path d="M72.14 118.9c-17.23-10.25-39-25.14-39-51.44V39.69c7.95-3 20.23-6.77 39-6.77 18.95 0 32 4.1 39 6.77v27.77c-.04 26.54-22.61 41.8-39 51.44z" class="cls-1" transform="translate(-33.18 -32.92)"/></g><g><path d="M83.86 82.94c0-.59.48-1.5.48-2.32 0-1-1.19-1.28-2.12-1.41-1.95-.27-2.6-.18-2.6-.61a2.54 2.54 0 0 1 .62-1.12 3.76 3.76 0 0 1 2.44-1.13 21.2 21.2 0 0 1 3-.24 16.7 16.7 0 0 1 2.91.28c1.2.21 1.41.71 1.41 1.27v.56c0 .56-.46.85-1.3 1l-.7.16a1.81 1.81 0 0 0-1.62 1c-.57 1.64-1.56 2.92-2.29 2.89a.3.3 0 0 1-.23-.33zm1.72-26.38a.47.47 0 0 1-.32-.38 2.33 2.33 0 0 1 .63-1.18c1-1.31 2.32-2.91 2.81-2.91a.94.94 0 0 1 .69.73 3.3 3.3 0 0 1 .33 1.42 7.28 7.28 0 0 1-1.53 4.34 12.78 12.78 0 0 0-2.61-2.02zM57 59.8c.44 0 .77-.29 1.43-1 1.48-1.64 2.91-1.86 2.91-2.56a1.92 1.92 0 0 0-.41-.94 62.55 62.55 0 0 1-3.19-5.59 1.78 1.78 0 0 0-1.12-1.09 2.2 2.2 0 0 0-1.46 1.18 5.14 5.14 0 0 0-.94 2.43A17.09 17.09 0 0 0 55 57c.5 1.48 1.28 2.8 2 2.8zm17.79 5.7A3 3 0 0 0 71.6 63a3.85 3.85 0 0 0-3.49 2.39 3.64 3.64 0 0 0 2.54 2.21c.23.07.45.07.45.27s-.29.41-.89.41a4.39 4.39 0 0 1-3.59-1.46 14 14 0 0 1-1.8.29.79.79 0 0 1-.82-.91 2.61 2.61 0 0 1 .3-1.13l.32-.64a5.74 5.74 0 0 1 2.52-2.9l1-.6a5.08 5.08 0 0 1 2.86-.72h.87a3.86 3.86 0 0 1 2.78.93c1.27 1.07 2 1.66 2 2.45a3.52 3.52 0 0 1-.75 2.49 3.15 3.15 0 0 1-2.07 1.32.17.17 0 0 1-.21-.18.51.51 0 0 1 .27-.29 3.35 3.35 0 0 0 .85-1.43zm8.51 27.31a16 16 0 0 1-3.91.24c-4.42 0-5.17-1.09-5.17-1.95 0-1.44 6.34-2.45 8.84-2.45s3.45.77 3.45 1.35-1.08 2.29-3.21 2.81zm-25.5 12.94a139.93 139.93 0 0 0 14.35 9.65c0-4.33-.1-6.89 2.84-10l3.52-3.65a4.58 4.58 0 0 1 1.9-1.51c.28 0 .41.15.41.52a8.78 8.78 0 0 0 1.05 3.51 4.4 4.4 0 0 0 3.23 2.51C97.64 97.37 108.15 85 108.15 67.4V41.74c-3.1-1.05-15.82-5.93-36-5.93s-32.91 4.88-36 5.93V67.4a40.7 40.7 0 0 0 5.35 20.37c.33-3.56 2.74-5.25 2.74-8.75 0-2.44-.69-4-.69-6 0-3.7 5-11.31 7.58-14.41a.69.69 0 0 1 .45-.31.55.55 0 0 1 .44.3.9.9 0 0 0 .66.62.36.36 0 0 0 .39-.41 21.6 21.6 0 0 1-.75-5.92c0-2.94.68-3.56 2.51-5.35a4 4 0 0 1 2.33-1.31 3.07 3.07 0 0 1 2.29 1.32c1.13 1.15 2.7 3.18 3 3.51a.34.34 0 0 0 .29.17c.52 0 1-.16 3.23-.16 4.12 0 10.33.65 13.53 1.69a24 24 0 0 0 2.42.91.21.21 0 0 0 .23-.25 8.26 8.26 0 0 1-.43-.83.5.5 0 0 1 .3-.41c2.38-1.28 4.41-2.25 6.27-2.25 1.08 0 1.62.94 2.07 1.86a6.31 6.31 0 0 1 .74 2.69 8.27 8.27 0 0 1-1.73 5.14c.37.38.89.95 1.21 1.33a4.28 4.28 0 0 1 1.24 2.47 8.89 8.89 0 0 1-.3 1.51.76.76 0 0 1-.63.66.61.61 0 0 1-.45-.72v-.25a3.87 3.87 0 0 0-3.26-3.77h-.33a3.27 3.27 0 0 0-2.55 1 2.42 2.42 0 0 0-.79 1.78 4.92 4.92 0 0 0 .71 1.78c.24.48.85 1.61 1.18 2.19a1.19 1.19 0 0 0 1.08.69c1 0 1.92-.14 1.92-.45a.15.15 0 0 0-.19-.16h-.33c-1.34 0-2.06-1.71-2.73-3.25a2.86 2.86 0 0 1 2.14-1 2.06 2.06 0 0 1 2.21 2.06 3.1 3.1 0 0 1-.28 1.28.6.6 0 0 0-.08.24c0 .18.23.22.6.3l.53.13a1.56 1.56 0 0 1 1 .93c.12.31.38 1 .44 1.21a8.4 8.4 0 0 1 .58 2.77 8 8 0 0 1-.4 2.72 15.76 15.76 0 0 0-.67 2.93 3.6 3.6 0 0 1 .22.49 5.74 5.74 0 0 1 .56 2.37v.79a6 6 0 0 1-1.27 3.6c-.51.69-1.25 1.67-1.67 2.21A1.41 1.41 0 0 1 88 88a3 3 0 0 1-.66-.12l-1-.26A2.12 2.12 0 0 1 84.76 86l-.22-.56c-.21-.55-.34-.9-.68-.9a1 1 0 0 0-.75.55 4.11 4.11 0 0 1-3 2.23c-.55.14-1.67.37-2.3.51a21.35 21.35 0 0 1-3.58.65 5.73 5.73 0 0 1-.63 0c-1.3-.18-2.22-.27-3.83-2.19-2.22-2.65-2-3-2.12-6.6a.78.78 0 0 0-.56-.9c-.37 0-.53.76-.67 1.83-.16 1.26-.45 2.57-1.07 2.57a4 4 0 0 1-1.35-.28l-3.87-1.29c-1.44-.48-2.82-.85-3.37-2.13-.26-.6-.74-1.72-1-2.3a.57.57 0 1 0-1.08.19c0 .41-.15 1.34-.2 1.93a8 8 0 0 1-1.77 4.94c-.48.64-.94 1.29-1.48 2a8.4 8.4 0 0 0-1.74 5.8v1.73c.11 4.22 1.18 6.3 8.31 11.97z" class="cls-2" transform="translate(-33.18 -32.92)"/><path d="M91.26 68.4c.12.31.38 1 .44 1.21a8.4 8.4 0 0 1 .58 2.77 8 8 0 0 1-.4 2.72 15.77 15.77 0 0 0-.66 2.9c-.11-.24-2.28-4-2.45-4.28a2 2 0 0 1-.3-1 1 1 0 0 1 .63-.9c.28-.17.64-.38.88-.5a2.13 2.13 0 0 0 1.38-2 6.42 6.42 0 0 0-.1-.92zm-9.44 6a2.64 2.64 0 0 1 .22.88 1.26 1.26 0 0 1-.45 1.07l-.59.49a2.11 2.11 0 0 0-.77.63 2.54 2.54 0 0 0-.62 1.12.25.25 0 0 0 .1.21 1.54 1.54 0 0 1-.6-1.25c0-.39.13-.6.13-1a2.85 2.85 0 0 0-.14-.8c-.6-2-1.61-4.4-2.24-6S75.74 67.2 75 67.2c-.4 0-.75.2-1.17.2a3.15 3.15 0 0 0 2.07-1.32 3.52 3.52 0 0 0 .75-2.49 1.61 1.61 0 0 0-.45-1.06 12 12 0 0 1 2.11 3.41c1.36 2.86 2.53 6 3.52 8.44zM49.5 93.78v-1.73a8.4 8.4 0 0 1 1.74-5.8c.53-.71 1-1.36 1.48-2a8 8 0 0 0 1.77-4.94c.05-.58.15-1.52.2-1.93a.57.57 0 1 1 1.08-.19c.24.58.73 1.7 1 2.3.55 1.27 1.93 1.65 3.37 2.13L64 82.91a4 4 0 0 0 1.39.28c.62 0 .91-1.31 1.07-2.57.14-1.07.3-1.83.67-1.83a.78.78 0 0 1 .56.9c.13 3.58-.1 3.95 2.12 6.6 1.61 1.93 2.53 2 3.83 2.19a1.79 1.79 0 0 1-1.1-1.87v-1.29a4.92 4.92 0 0 1 .4-2c.15-.35.33-1 .49-1.36a2.17 2.17 0 0 0 .15-1.28A7.46 7.46 0 0 0 73 78.5c-.2-.6-.47-1.48-.72-2.19-.8-2.24-1.13-2.77-3.81-3.13l-5.41-.76c-3-.43-5.37-.57-6.6-2.59-1.47-2.41-1.32-5.35-2.73-5.35-.67 0-1 .75-1 1.84s.43 3 .43 6.23c0 2.79-.26 3.57-1.89 5.62-.42.53-1 1.32-1.35 1.77-1.21 1.52-1.75 2.37-1.67 4.15a60.26 60.26 0 0 0 1.25 9.69zm30.7 10.77c.1-1.12.6-3 .6-3.75 0-.38-.13-.52-.41-.52a4.58 4.58 0 0 0-1.9 1.51L75 105.44c-2.93 3.07-2.79 5.62-2.84 10 3.26-2 6.24-3.85 8.45-5.36a17.27 17.27 0 0 1-.41-5.53z" class="cls-3" transform="translate(-33.18 -32.92)"/></g></g></svg>